<mxfile host="app.diagrams.net" agent="Mozilla/5.0 (Macintosh; Intel Mac OS X 10_15_7) AppleWebKit/537.36 (KHTML, like Gecko) Chrome/130.0.0.0 Safari/537.36" version="24.8.6">
  <diagram name="Page-1" id="Ue8n0Toml4prhe2mz1SP">
    <mxGraphModel dx="5680" dy="2668" grid="1" gridSize="3.937" guides="1" tooltips="1" connect="1" arrows="1" fold="1" page="1" pageScale="1" pageWidth="4681" pageHeight="3300" math="0" shadow="0">
      <root>
        <mxCell id="0" />
        <mxCell id="1" parent="0" />
        <mxCell id="0AF6tuhqy3_v5o_kYMEw-1" value="" style="rounded=0;whiteSpace=wrap;html=1;fillColor=default;" vertex="1" parent="1">
          <mxGeometry x="393.7" y="921.2599999999999" width="1692.91" height="1082.67" as="geometry" />
        </mxCell>
        <mxCell id="0AF6tuhqy3_v5o_kYMEw-3" value="" style="rounded=0;whiteSpace=wrap;html=1;" vertex="1" parent="1">
          <mxGeometry x="393.7" y="251.97000000000003" width="708.66" height="669.31" as="geometry" />
        </mxCell>
        <mxCell id="0AF6tuhqy3_v5o_kYMEw-4" value="" style="rounded=0;whiteSpace=wrap;html=1;" vertex="1" parent="1">
          <mxGeometry x="393.7" y="1295.2800000000002" width="78.74" height="708.65" as="geometry" />
        </mxCell>
        <mxCell id="0AF6tuhqy3_v5o_kYMEw-5" value="" style="rounded=0;whiteSpace=wrap;html=1;" vertex="1" parent="1">
          <mxGeometry x="393.7" y="2003.87" width="1692.91" height="39.44" as="geometry" />
        </mxCell>
        <mxCell id="0AF6tuhqy3_v5o_kYMEw-7" value="" style="rounded=0;whiteSpace=wrap;html=1;" vertex="1" parent="1">
          <mxGeometry x="393.7" y="2043.31" width="78.74" height="708.66" as="geometry" />
        </mxCell>
        <mxCell id="0AF6tuhqy3_v5o_kYMEw-8" value="" style="rounded=0;whiteSpace=wrap;html=1;fillColor=#ffcc99;strokeColor=#36393d;" vertex="1" parent="1">
          <mxGeometry x="1358.2700000000004" y="1263.7800000000002" width="236.22" height="551.18" as="geometry" />
        </mxCell>
        <mxCell id="0AF6tuhqy3_v5o_kYMEw-10" value="" style="rounded=0;whiteSpace=wrap;html=1;rotation=90;fillColor=#fad9d5;strokeColor=#ae4132;" vertex="1" parent="1">
          <mxGeometry x="303.14999999999964" y="1472.44" width="590.55" height="157.48" as="geometry" />
        </mxCell>
        <mxCell id="0AF6tuhqy3_v5o_kYMEw-15" value="" style="verticalLabelPosition=bottom;html=1;verticalAlign=top;align=center;shape=mxgraph.floorplan.couch;rotation=90;" vertex="1" parent="1">
          <mxGeometry x="822.83" y="1366.14" width="704.723" height="346.45599999999996" as="geometry" />
        </mxCell>
        <mxCell id="0AF6tuhqy3_v5o_kYMEw-16" value="" style="verticalLabelPosition=bottom;html=1;verticalAlign=top;align=center;shape=mxgraph.floorplan.table;" vertex="1" parent="1">
          <mxGeometry x="1602.36" y="933.07" width="472.44" height="236.22" as="geometry" />
        </mxCell>
      </root>
    </mxGraphModel>
  </diagram>
</mxfile>
